<?xml version="1.0" standalone="no"?>
<!DOCTYPE svg PUBLIC "-//W3C//DTD SVG 20010904//EN"
 "http://www.w3.org/TR/2001/REC-SVG-20010904/DTD/svg10.dtd">
<svg version="1.0" xmlns="http://www.w3.org/2000/svg"
 width="500.000000pt" height="500.000000pt" viewBox="0 0 500.000000 500.000000"
 preserveAspectRatio="xMidYMid meet">
<metadata>
Created by potrace 1.11, written by Peter Selinger 2001-2013
</metadata>
<g transform="translate(0.000000,500.000000) scale(0.100000,-0.100000)"
fill="#000000" stroke="none">
<path d="M4985 4751 c-8 -7 -755 -416 -965 -529 -36 -19 -78 -42 -95 -52 -16
-9 -61 -34 -100 -55 -38 -21 -155 -85 -258 -142 -104 -56 -190 -103 -192 -103
-2 0 -26 -13 -52 -28 -26 -16 -88 -50 -138 -77 -49 -26 -153 -83 -230 -125
-77 -42 -180 -99 -230 -125 -49 -27 -119 -65 -155 -86 l-64 -36 -41 22 c-48
27 -197 108 -317 174 -29 15 -105 56 -168 91 -63 35 -137 75 -165 90 -27 15
-120 65 -205 112 -173 95 -252 138 -355 193 -38 21 -74 41 -80 45 -5 4 -44 25
-85 47 -41 22 -95 52 -120 65 -25 14 -81 44 -125 68 -44 24 -100 54 -125 68
-25 13 -74 40 -110 60 -36 19 -96 52 -133 74 -38 21 -70 38 -72 38 -2 0 -34
17 -72 39 -84 47 -168 94 -225 124 -24 13 -53 30 -65 37 -12 8 -25 11 -29 8
-8 -9 -9 -3122 -1 -3135 4 -5 79 -52 169 -104 90 -52 170 -98 180 -104 9 -5
29 -17 45 -26 36 -20 529 -306 568 -330 17 -11 37 -22 45 -26 8 -4 49 -27 90
-51 41 -25 89 -53 105 -62 17 -10 100 -58 185 -107 85 -49 232 -134 325 -188
181 -104 209 -121 405 -235 69 -40 141 -82 160 -93 19 -11 49 -28 65 -38 17
-11 37 -22 45 -26 8 -4 31 -17 51 -30 20 -13 45 -25 55 -25 11 -1 71 29 134
67 63 37 129 75 145 85 17 9 91 53 165 97 74 44 158 93 185 110 28 16 65 35
83 42 17 7 32 17 32 22 0 5 5 9 11 9 6 0 48 22 93 48 44 27 140 83 211 124 72
41 256 148 410 238 154 89 327 190 385 223 58 33 154 89 213 124 60 35 123 72
140 81 18 9 89 51 160 92 l127 74 0 1578 c0 868 -1 1578 -3 1578 -2 0 -7 -4
-12 -9z m-4105 -1404 c14 -7 61 -33 105 -56 44 -24 107 -58 140 -76 82 -44
480 -257 585 -313 47 -25 108 -57 135 -72 65 -36 168 -91 275 -147 47 -25 108
-58 135 -73 28 -15 94 -51 149 -80 l99 -53 51 26 c28 15 96 51 151 80 112 61
200 108 325 175 83 44 148 79 273 146 34 18 98 53 142 76 44 24 103 55 130 70
28 15 91 49 140 75 50 26 113 60 140 75 28 15 95 51 150 80 55 29 105 56 110
60 6 5 19 10 29 12 18 3 19 -13 20 -571 1 -498 -1 -577 -14 -592 -13 -15 -286
-189 -296 -189 -2 0 -4 176 -4 390 0 215 -3 390 -6 390 -3 0 -38 -17 -77 -39
-98 -52 -221 -117 -347 -184 -58 -30 -130 -68 -160 -84 -30 -17 -109 -58 -175
-93 -66 -34 -142 -75 -170 -90 -27 -15 -99 -53 -160 -85 -60 -32 -142 -75
-182 -97 l-72 -39 -88 47 c-48 26 -119 63 -158 84 -38 21 -110 59 -160 85
-101 53 -210 112 -300 160 -33 18 -114 60 -180 95 -66 35 -133 71 -150 80 -51
30 -302 160 -308 160 -3 0 -4 -174 -3 -386 1 -212 -1 -387 -5 -389 -5 -4 -282
154 -297 170 -8 8 -10 1185 -2 1185 3 0 16 -6 30 -13z"/>
</g>
</svg>
